<svg version="1" xmlns="http://www.w3.org/2000/svg" width="1365.333" height="1365.333" viewBox="0 0 1024.000000 1024.000000"><path d="M485.8.4c-.1.2-5 .6-10.8 1-5.8.3-11.6.8-13 1.1-1.4.2-5.4.7-9 1-9.8 1-10.7 1.1-22 2.9C359.4 18 290.7 44.7 231.5 83.8c-12.8 8.4-40.6 28.9-45.5 33.4-1.4 1.3-3.8 3.4-5.5 4.6-1.6 1.3-7.3 6.3-12.5 11-24.1 22.1-46.3 46.5-64.9 71.2-3.9 5.2-7.5 10-8 10.6-2.2 2.7-15.3 22.8-21.8 33.4-17.8 29.3-34 63.7-45.3 96.5-6.9 20.2-14 45.8-17.4 63.5-.2 1.4-.9 4.7-1.5 7.5-.6 2.7-1.3 6.6-1.6 8.5-1.2 7.7-3.4 23.8-4 28.5-.3 2.7-.8 6.3-1 8-2.6 19.2-2.6 85.8 0 101.5.2 1.4.6 5.2 1 8.5.3 3.3.8 7.6 1 9.5 1.1 7.5 2.7 17.6 3.1 20 .3 1.4.7 3.8.9 5.5.6 3.9 1.3 7.3 1.9 9.3.3.9.8 3.3 1.1 5.2.3 1.9 2.4 10.7 4.6 19.5 13.6 53.6 36.8 106.1 67.6 153 8 12.1 27.9 39.2 33.8 46 1.4 1.6 3.6 4.1 4.7 5.5 15.5 18.4 42.9 45.5 62.3 61.5 3.3 2.7 6.2 5.2 6.5 5.5 3.6 3.9 55.2 40 57.3 40 .2 0 4.2 2.3 8.8 5.1 13.2 8 48.8 25.1 66.9 32.2 22.5 8.8 56.7 19.4 74 23 1.4.2 7.2 1.5 13 2.6 5.8 1.2 11.6 2.4 13 2.6 1.4.2 5.4.8 9 1.4 10.8 1.7 13.4 2 19.6 2.6 3.2.4 7.5.8 9.4 1 22.2 2.6 87.3 2.6 100.9 0 .9-.2 4.7-.6 8.3-.9 3.7-.4 7.5-.8 8.5-1 1-.2 4.1-.7 6.8-1 4.2-.6 11.8-1.9 23.5-4 49.3-9.1 101.3-28.1 151.7-55.5 18.8-10.2 50.3-31.5 70.5-47.7 25.2-20.1 56.6-50.9 73.3-71.9 2.2-2.8 4.2-5.2 4.5-5.5.8-.8 12.3-15.5 13.8-17.6.7-1.1 4.3-6.2 8-11.4 6.3-8.8 17.2-25.7 22-34 1.1-1.9 3.6-6.4 5.7-10 4.1-7.2 18.1-35.2 20.7-41.5.9-2.2 3.1-7.3 4.9-11.4 9.6-22.9 22.8-64 25.5-80.1.3-1.4.9-3.9 1.4-5.5.5-1.7 1.1-4.4 1.4-6 .2-1.7.9-5.5 1.6-8.5.6-3 1.3-7.1 1.6-9 .3-1.9.9-6 1.4-9 1-5.9 1.6-10.4 2.5-19 .3-3 .8-6.4 1-7.5 2.6-12.4 2.6-86.8.1-101.5-.3-1.4-.7-5.2-1-8.5-.8-7.7-1.5-13.3-2.1-16.5-.3-1.4-.7-4.3-1.1-6.5-2.3-16.5-9.4-47.7-14.5-64.3-10.7-34.7-18.9-55.1-34.4-85.7-10.8-21.3-18.5-34.6-29.8-51.5-27.9-41.7-60.7-78.2-99.7-111-1-.8-2.9-2.4-4.2-3.5-2.6-2.2-29.6-22.4-34.3-25.6-40-27.6-92.7-52.9-138.5-66.6-19.8-5.9-48.5-12.7-62.5-14.7-2.2-.4-6.5-1.1-9.5-1.6s-7.5-1.2-10-1.5c-2.5-.3-5.6-.8-7-1-1.4-.2-6.1-.7-10.5-1.1-4.4-.3-9.8-.8-12-1.1-4.8-.5-64.2-1.3-64.7-.9zm57.2 67c14.1 1 28 2.6 37 4.1 1.4.3 6.8 1.2 12 2 5.2.9 10.9 2 12.5 2.5 1.7.5 4.1 1.1 5.5 1.4 15.5 2.7 55.5 15.2 69.9 21.7 2.4 1.1 6.4 2.8 9 3.9 5.9 2.3 29.6 13.8 38.6 18.8 46.8 25.8 90.8 62.2 126.6 104.7 40.1 47.7 70.6 105.8 87.3 166.3 2.5 8.9 4.8 18.2 5.1 20.5.4 2.3.9 4.5 1.1 4.8.4.7 2.6 12 3.8 19.4.3 1.6.7 4.3 1 6 .6 3.5 2.3 17 3 23.5 2.5 21.9 2.5 72.8.1 88.5-.2 1.6-.6 5.2-.9 8-.2 2.7-.9 8.4-1.6 12.5-.6 4.1-1.3 9.1-1.6 11-.2 1.9-.6 4.2-.9 5-.2.8-.7 3.1-1 5-2.2 13.3-11.6 48.6-16.3 61-.9 2.5-1.7 4.7-1.8 5 0 .3-.6 1.8-1.3 3.5-.6 1.6-2.1 5.5-3.3 8.5-17.4 45.5-47.9 95.1-81.7 133-15.1 16.9-38.3 39.1-51.1 49-2.5 1.9-4.7 3.7-5 4.1-1.4 1.7-24.9 18.5-35.3 25.3-40.1 26-85.2 45.7-131.8 57.5-8.6 2.2-17.2 4.2-19 4.5-1.9.3-4.5.8-5.9 1.1-3.7.8-8.1 1.6-11.5 2.1-1.6.2-4.1.6-5.5.8-22.4 3.5-41.5 4.9-66 5-16.2 0-38.7-.9-47-1.9-13.4-1.6-24.9-3.2-28.9-4-.9-.1-5.6-1-10.6-2-30.1-5.5-71.4-18.5-96.5-30.2-18.5-8.6-28.1-13.5-44.5-22.8-15.6-8.8-50.9-34-64.4-46-62.9-55.7-103-114.4-131-191.9-7.5-20.5-16.8-58.1-19.6-79.1-3-21.9-3.3-24.6-4.2-39-1.2-19.6-.6-61.4 1.1-71.5.3-1.4.7-5.6 1.1-9.3.3-3.7.8-7.6 1-8.5.1-.9.8-5.3 1.5-9.7.6-4.4 1.8-11 2.6-14.7.7-3.7 1.6-8.1 1.9-9.6.2-1.6 1.8-8.2 3.5-14.8 1.7-6.5 3.3-12.6 3.5-13.4 1.3-5.8 8.8-27.2 14.2-41 21.9-55.5 55.4-106.8 96.8-148.4 20.1-20.2 32.4-30.9 57-49.4 4.2-3.2 23.5-15.8 30-19.7 38-22.7 82.3-41.1 122.5-50.9 10.3-2.6 26.9-6 33.5-7 2.2-.4 5.2-.9 6.6-1.1 3.2-.6 7.7-1.2 15.4-2 3.3-.4 7.1-.8 8.5-1 1.3-.3 8.1-.7 15-1.1 6.9-.4 12.6-.7 12.7-.8.5-.4 39.4.3 47.3.8z"/><path d="M419.7 148.7c-.3.5-.8 2.4-1.1 4.3-.3 1.9-.8 4.8-1.1 6.5-.3 1.6-.7 4.3-1 6-.3 1.6-.7 4-.9 5.1-.2 1.2-.7 3.9-1 6-.3 2.2-.8 5-1.1 6.4-1 4.9-1.5 7.6-3.1 16.5-.8 4.9-1.7 10.1-2 11.5-.5 2.6-4 22.1-4.9 27.5-.3 1.6-1.2 6.6-2 11s-1.7 9.6-2 11.5c-.3 1.9-1.3 7.3-2.1 12-.9 4.7-1.8 9.6-2 11-.3 1.4-1.1 6.1-1.9 10.5-.8 4.4-1.7 9.6-2 11.5-.3 1.9-1 5.7-1.5 8.5-.5 2.7-1.2 6.6-1.5 8.5-.7 3.9-4.3 24.1-5 28-.3 1.3-.7 4.2-1.1 6.4-.3 2.2-.8 4.4-1 4.8-.3.5-30.8.8-67.9.8-52.9 0-67.4.3-67.7 1.2-.2.7-.4 18.8-.3 40.3l.1 39 60.7.3 60.7.2-.5 2.3c-.2 1.2-.7 3.8-.9 5.7-.3 1.9-1 5.7-1.5 8.5-.6 2.7-1.3 6.2-1.5 7.8-.3 1.5-1 5.3-1.5 8.5-.6 3.1-1.3 7.3-1.6 9.2-1.7 10.1-6.6 37.7-7 39-.2.8-.7 3.5-1 6-.3 2.5-.8 5.2-1 6-.2.8-.7 3.1-1 5-.3 1.9-1.2 7.1-2 11.5s-1.7 9.3-1.9 11c-.3 1.6-.8 4.2-1.2 5.7l-.6 2.8H241.4l.1 40.2v40.3l44.1.3 44.1.2-1.4 7.8c-2 11.4-5.3 30.3-5.9 33.7-.3 1.6-.7 3.7-.9 4.5-.2.8-.6 3.1-.9 5-.4 3-1.5 9.7-4.1 23.5-2.3 12.4-3.6 19.6-4.1 23.5-.3 2.5-.8 4.8-1 5.1-.3.5-.8 2.9-1.9 10.1-.3 1.8-1.4 8.2-2.5 14.3-1 6-2.2 12.6-2.5 14.5-.3 1.9-1.2 7.1-2 11.5s-1.7 9.6-2 11.5c-.3 1.9-.8 4.2-1 5-.2.8-.6 3.3-1 5.5-.3 2.2-.7 4.7-1 5.5-.2.8-.6 3.3-1 5.5-.6 4.4-4.2 24.6-5 28.3l-.5 2.2 42.1-.2 42.2-.3.4-2.5c.3-2.3 1.1-6.6 5.8-32.5.8-4.4 1.7-9.4 2-11 1.7-9.8 4.5-25.3 4.9-27 .2-1.1.7-4 1.1-6.5.8-5.1 1.2-7.4 2-11 .2-1.4.7-3.9 1-5.5.3-1.7.7-3.9.9-5 .2-1.1.7-4 1.1-6.5.4-2.5.9-5.4 1.2-6.5.2-1.1.5-3.1.7-4.5.2-1.4 1.1-6.3 2-11 1.6-8.4 9.3-51.7 10.3-57.5.3-1.7 1.6-8.8 2.9-15.9 1.3-7.1 2.4-13 2.4-13.2 0-.2 27.5-.4 61.1-.4h61.1l-.6 2.7c-.3 1.6-.9 4.5-1.2 6.7-.6 4-.7 4.8-2.3 13.1-.6 2.7-1.2 6.6-1.5 8.5-.3 1.9-1 6-1.6 9-.6 3-1.3 6.6-1.5 8-.2 1.4-.9 5.2-1.5 8.5s-1.3 7.5-1.6 9.4c-.8 4.9-1.3 7.1-1.8 8.9-.3.9-.7 3.5-1.1 5.7-.6 4.3-4.2 24.7-4.9 28.1-.2 1.2-.7 3.7-1 5.5-.3 1.9-1 6.1-1.6 9.4-.6 3.3-1.5 8.5-2 11.5-.6 3-1.2 6.6-1.5 8-1.1 5.9-1.5 7.7-1.9 11-.3 1.9-.8 4.6-1.1 6-.3 1.4-1.2 6.1-2 10.5s-2.1 11.7-2.9 16.2c-.8 4.5-1.8 10-2.1 12.2-.3 2.2-1.2 7.2-1.9 11.1l-1.4 7h82.5l1.3-7.3c.7-3.9 1.4-8.1 1.6-9.2.2-1.1 1.3-7.2 2.4-13.5 1.2-6.3 2.3-12.6 2.5-14 1.5-7.8 11.9-66.3 13.6-76 1.1-6.3 3.1-17.6 4.5-25 2.2-11.5 3.5-18.7 5.9-33 .5-2.6 1.1-5.6 2-10 .3-1.4.7-4.3 1.1-6.5.3-2.2.7-4.7.9-5.5.2-.8.7-3.3 1-5.5.3-2.2.9-5.6 1.3-7.5l.8-3.5 78.2-.3 78.2-.2v-81H632.8l.5-2.3c.4-1.2 1.7-8.7 3.1-16.7 1.4-8 2.8-15.6 3.1-17 .5-2.7 6.6-36.8 9.1-51 1.9-10.9 2.3-13 2.9-16 .3-1.4.8-4.1 1.1-6 .4-1.9.8-4.4 1-5.5.2-1.1.9-4.8 1.5-8.3l1.1-6.2H779v-81H670.8l.7-4.8c.3-2.6 1-6.5 1.5-8.7.5-2.2 1.2-5.6 1.5-7.5.5-2.9 4.5-25.4 6-34 .6-2.8 3.3-18.2 3.9-22 .3-1.4 1-5.2 1.6-8.5.5-3.3 1.3-7.4 1.5-9 .3-1.7 1.2-6.4 2-10.5s1.7-9.1 2-11c.7-4.3 2.3-13.6 3-17 .3-1.4 1.6-8.8 3-16.5 1.3-7.7 3.3-19 4.4-25 3.8-21 7.1-39.6 7.1-40 0-.3-18.4-.5-40.9-.5-38.2 0-41 .1-41.5 1.7-.3 1-1.2 5.8-2.1 10.8-.9 4.9-2.4 13.7-3.5 19.5-1 5.8-3.5 19.5-5.4 30.5-2 11-3.8 21.1-4.1 22.5-.3 1.4-1 5.2-1.5 8.5s-1.2 7.1-1.5 8.5c-1 4.8-2.7 14.5-3.2 17.5-.2 1.6-1.5 8.8-2.8 16-1.4 7.1-2.7 14.3-3 16-.2 1.6-.9 5.5-1.5 8.5-.5 3-1.2 7.1-1.5 9-.3 1.9-1.2 6.9-2 11s-2.4 12.9-3.5 19.5-2.3 12.8-2.6 13.7c-.5 1.7-4.3 1.8-61.5 1.8H466l.5-2.3c.4-1.8 2-11.1 5.1-28.7.9-4.6 4.4-24.4 6.9-38 1.4-7.4 2.8-15.3 3.1-17.5.3-2.2.9-5.8 1.4-8 .5-2.2 1.1-5.6 1.5-7.5.3-1.9 1.2-7.3 2.1-12 .9-4.7 1.7-9.6 1.9-11 .2-1.4.8-5 1.4-8 .6-3 1.3-6.9 1.6-8.5.2-1.7.7-4.1 1-5.5.2-1.3.7-4.2 1-6.5.3-2.2.8-4.7 1-5.5.2-.8.7-3.1 1-5 .3-1.9.8-4.2 1-5 .2-.8.6-3.3 1-5.4.4-3.2 3.3-19.5 5.1-29.6.2-1.4.7-4.1 1-6 .3-1.9.8-3.8 1.1-4.3.2-.4-18.7-.7-42.1-.7-23.4 0-42.7.3-42.9.7zm153.6 296.8c-.6 4-1.3 8.4-1.8 10.5-.2 1.4-.7 3.6-1 5-.2 1.4-.7 4.1-1 6-.6 3.6-1.5 9.1-2.1 12.5-1.5 8-6.4 35.7-6.9 38.5-.3 1.9-1.2 6.9-1.9 11-2.9 15.4-4.6 24.6-5.1 28-.5 3.2-1.6 9.4-2.1 11.2-.1.5-.2 1.7-.3 2.8-.1 2-.8 2-61.1 2-58.3 0-61-.1-61-1.8 0-1.6 1-7.7 2.5-15.2.3-1.4.8-3.9 1-5.5.3-1.7 1.9-10.4 3.5-19.5s3.2-17.9 3.5-19.5c.5-3 1-5.9 2-10.5.3-1.4.8-4.2 1.1-6.4.3-2.1.8-4.8 1-6 .2-1.1 2-11.1 3.9-22.1 2-11 3.7-20.6 4-21.3.6-1.6 122.1-1.3 121.8.3z"/></svg>